<?xml version="1.0" standalone="no"?>
<!DOCTYPE svg PUBLIC "-//W3C//DTD SVG 20010904//EN"
 "http://www.w3.org/TR/2001/REC-SVG-20010904/DTD/svg10.dtd">
<svg version="1.0" xmlns="http://www.w3.org/2000/svg"
 width="512.000000pt" height="512.000000pt" viewBox="0 0 512.000000 512.000000"
 preserveAspectRatio="xMidYMid meet">
<metadata>
Created by potrace 1.11, written by Peter Selinger 2001-2013
</metadata>
<g transform="translate(0.000000,512.000000) scale(0.100000,-0.100000)"
fill="#000000" stroke="none">
<path d="M3020 4946 c-67 -19 -120 -49 -176 -99 -40 -36 -60 -47 -99 -52 -142
-21 -270 -123 -319 -255 -21 -59 -24 -80 -25 -175 l-1 -80 -46 -24 c-80 -43
-164 -156 -183 -246 -14 -69 -4 -189 21 -248 53 -124 178 -223 311 -246 4 0
90 -1 192 -1 l185 0 -1 -537 -1 -538 -19 75 c-10 41 -26 95 -35 120 -48 140
-161 309 -227 343 -84 43 -186 17 -242 -62 -28 -40 -30 -49 -35 -163 l-5 -120
-67 0 c-38 1 -72 1 -77 1 -5 1 -10 54 -12 119 -4 109 -6 122 -32 160 -71 108
-226 113 -311 12 -113 -138 -198 -352 -212 -537 -4 -58 -11 -86 -27 -108 -55
-75 -110 -212 -123 -304 -11 -76 -12 -85 -13 -113 l-1 -28 -80 0 -80 0 0 -80
0 -80 91 0 c74 0 90 -3 87 -14 -2 -8 -106 -92 -233 -187 -296 -221 -335 -263
-393 -418 -20 -55 -26 -90 -30 -205 l-5 -138 -59 4 c-91 7 -92 9 -99 211 -6
191 -13 220 -71 274 -55 53 -103 71 -179 69 -77 -3 -137 -34 -180 -95 -47 -65
-52 -97 -46 -305 4 -165 8 -200 27 -256 59 -166 183 -289 357 -352 51 -18 85
-21 288 -25 195 -4 236 -7 270 -22 22 -10 63 -27 90 -37 48 -18 113 -19 1590
-21 1692 -2 1587 -6 1741 58 90 37 174 98 248 180 69 76 115 155 153 264 l28
80 2 455 c1 444 1 458 -23 569 -13 63 -29 129 -36 145 -10 24 -14 201 -18 771
-5 696 -6 742 -24 777 -41 84 -133 139 -225 137 -74 -1 -145 -43 -192 -111
l-34 -51 -3 -330 -3 -331 -135 203 c-73 111 -134 206 -134 211 0 5 -4 10 -8
12 -4 2 -19 21 -32 43 -13 22 -28 45 -33 50 -5 6 -55 82 -113 170 -95 146
-104 164 -104 208 0 26 2 47 3 47 2 0 18 -7 36 -16 18 -9 62 -18 99 -20 125
-7 231 47 294 151 45 74 48 103 45 390 l-2 270 -32 67 c-43 92 -100 151 -190
195 -71 35 -78 36 -205 41 l-131 5 -34 38 c-20 22 -68 55 -111 77 l-76 37
-235 2 c-169 1 -249 -2 -281 -11z m-143 -2528 c-3 -8 -6 -5 -6 6 -1 11 2 17 5
13 3 -3 4 -12 1 -19z"/>
</g>
</svg>
